<svg width="10" height="10" xmlns="http://www.w3.org/2000/svg">

 <g>
  <title>background</title>
  <rect fill="none" id="canvas_background" height="12" width="12" y="-1" x="-1"/>
 </g>
 <g>
  <title>Layer 1</title>
  <path stroke="null" id="svg_2" fill-rule="evenodd" fill="#464655" d="m0.505893,0.004358l8.994048,0c0.271462,0 0.4957,0.224257 0.4957,0.501652l0,8.993951c0,0.271443 -0.224238,0.495681 -0.495681,0.495681l-8.994068,0c-0.277278,0 -0.501535,-0.224238 -0.501535,-0.495681l0,-8.993951c0,-0.277395 0.224257,-0.501652 0.501535,-0.501652l0,0zm4.485228,3.877301c0,-0.82028 -0.572528,-1.221591 -1.29832,-1.221591l-1.333817,0l-0.041351,0l-1.0091,0l0,4.585453l1.00912,0l0.041351,0l1.333817,0c0,0 1.451585,0.041331 1.451585,-1.35136c0,0 0.064924,-1.139104 -0.85566,-1.139104c-0.00002,0.00002 0.702376,-0.05302 0.702376,-0.873398l0,0zm1.109559,-0.383552l1.894441,0l0,-0.566576l-1.894441,0l0,0.566576zm0.985332,0.330415c-1.758505,0 -1.758505,1.75872 -1.758505,1.75872s-0.118198,1.752651 1.758505,1.752651c0,0 1.569744,0.088536 1.569744,-1.221493l-0.80824,0c0,0 0.029447,0.495681 -0.732057,0.495681c0,0 -0.808279,0.053059 -0.808279,-0.796766l2.372383,0c0.00002,0.000039 0.265393,-1.988792 -1.593551,-1.988792l0,0zm-0.784862,1.375167c0,0 0.094371,-0.702297 0.80262,-0.702297s0.7022,0.702297 0.7022,0.702297l-1.50482,0zm-3.942147,-1.729175l1.162599,0l0.171198,0c0,0 0.324483,0 0.324483,0.477942c0,0.47804 -0.188761,0.548935 -0.407164,0.548935l-1.251135,0l0,-1.026878l0.00002,0zm1.333797,1.729175c0,0 0.483797,-0.006049 0.483797,0.631402c0,0.525342 -0.35393,0.590071 -0.542886,0.596121c-0.041331,0 -0.070778,0 -0.094371,0l-1.180337,0l0,-1.227523l1.333797,0z" clip-rule="evenodd"/>
 </g>
</svg>