<svg width="10" height="10" xmlns="http://www.w3.org/2000/svg">

 <g>
  <title>background</title>
  <rect fill="none" id="canvas_background" height="12" width="12" y="-1" x="-1"/>
 </g>
 <g>
  <g stroke="null" id="svg_6">
   <title stroke="null" fill="#f79381">Layer 1</title>
   <path stroke="null" id="svg_2" fill-rule="evenodd" clip-rule="evenodd" fill="#f79381" d="m3.955745,4.16074c0,-0.229982 -0.189221,-0.41577 -0.419806,-0.41577l-1.034993,0l0,0.832289l1.035013,0c0.230565,0 0.419786,-0.186245 0.419786,-0.416519z"/>
   <path stroke="null" id="svg_3" fill-rule="evenodd" clip-rule="evenodd" fill="#f79381" d="m3.535959,5.201476l-1.035013,0l0,1.040361l1.24785,0c0.230357,0 0.413231,-0.269287 0.413231,-0.49981c0,-0.442361 -0.395504,-0.540551 -0.626068,-0.540551z"/>
   <path stroke="null" id="svg_4" fill-rule="evenodd" clip-rule="evenodd" fill="#f79381" d="m8.711463,-0.000329l-7.427303,0c-0.703367,0 -1.280081,0.576734 -1.280081,1.280102l0,7.42724c0,0.703367 0.576714,1.280122 1.280081,1.280122l7.427282,0c0.70345,0 1.280102,-0.576755 1.280102,-1.280102l0,-7.427261c0,-0.703367 -0.576651,-1.280102 -1.280081,-1.280102zm-2.881363,3.121083l1.87265,0l0,0.624217l-1.87265,0l0,-0.624217zm-2.081304,3.953371l-2.080139,0l0,-4.161444l2.080139,0c0.572635,0 1.039029,0.464646 1.039029,1.043399c0,0.371867 -0.200706,0.701266 -0.495878,0.884224c0.40726,0.141593 0.708652,0.52944 0.708652,0.984036c-0.000021,0.690217 -0.56708,1.249786 -1.251804,1.249786zm4.578171,-1.456505l-2.287109,0c0.029276,0.457759 0.336328,0.832934 0.731977,0.832934c0.38947,0 0.608195,-0.250332 0.68489,-0.624862l0.844274,0c-0.141593,0.707445 -0.590384,1.250992 -1.529164,1.250992c-0.944648,0 -1.564786,-0.696334 -1.564786,-1.564016c0,-0.86196 0.618328,-1.557857 1.562976,-1.557857c0.93878,0 1.556942,0.695918 1.556942,1.557712c0,0.035185 0,0.063483 0,0.105097z"/>
   <path stroke="null" id="svg_5" fill-rule="evenodd" clip-rule="evenodd" fill="#f79381" d="m6.771835,4.581566c-0.366061,0 -0.643505,0.24538 -0.69107,0.619909l1.375961,0c-0.059176,-0.37453 -0.324863,-0.619909 -0.68489,-0.619909z"/>
  </g>
 </g>
</svg>