<svg width="32" height="32" xmlns="http://www.w3.org/2000/svg" clip-rule="evenodd">

 <g>
  <title>background</title>
  <rect fill="none" id="canvas_background" height="34" width="34" y="-1" x="-1"/>
 </g>
 <g>
  <g stroke="null" id="svg_4">
   <title stroke="null">Layer 1</title>
   <rect stroke="null" fill="none" y="-3.229825" x="-3.229825" width="38.472099" id="Artboard8" height="38.472099"/>
   <rect stroke="null" id="svg_2" fill="#0056ff" y="-0.023817" x="-0.023817" width="32.060083" height="32.060083"/>
   <path stroke="null" id="svg_3" fill="#fff" d="m21.767421,23.083488l0,0c-1.295227,0 -2.537556,-0.514564 -3.454474,-1.431483c-0.915315,-0.915315 -1.42988,-2.157644 -1.42988,-3.452871c0,-0.208391 0,-0.418384 0,-0.626775c0,-1.295227 0.514564,-2.537556 1.42988,-3.452871c0.916918,-0.916918 2.159247,-1.431483 3.454474,-1.431483l0,0c1.295227,0 2.537556,0.514564 3.452871,1.431483c0.916918,0.915315 1.431483,2.157644 1.431483,3.452871c0,0.208391 0,0.418384 0,0.626775c0,0.125034 -0.004809,0.251672 -0.014427,0.375103l-7.12375,0l0,0.125034c0,1.245534 1.00829,2.255427 2.253824,2.255427c0,0 0,0 0,0c0.833562,0 1.562929,-0.45365 1.952459,-1.128515l2.651369,0c-0.240451,0.681277 -0.629981,1.306448 -1.150957,1.825822c-0.915315,0.916918 -2.157644,1.431483 -3.452871,1.431483zm-16.406747,-14.15132c0,0 3.710955,-0.001603 6.671703,-0.003206c0.953787,0 1.869103,0.378309 2.543968,1.053174c0.674865,0.674865 1.054777,1.59018 1.054777,2.545571c0,0 0,0 0,0c0,1.42988 -0.912109,2.64656 -2.184895,3.101813c0.644408,0.125034 1.243931,0.439223 1.715214,0.910506c0.620363,0.621966 0.969818,1.463543 0.969818,2.343592c0,0 0,0 0,0c0,1.046762 -0.415178,2.051845 -1.155766,2.792433c-0.740588,0.740588 -1.745672,1.155766 -2.792433,1.155766c-3.074562,0 -6.822386,0 -6.822386,0l0,-13.899649zm8.015021,9.767104c0,-0.496931 -0.19717,-0.97623 -0.54983,-1.327287c-0.352661,-0.352661 -0.830356,-0.551433 -1.32889,-0.551433c-1.51003,0 -3.380736,0 -3.380736,0l0,3.757442c0,0 1.870706,0 3.380736,0c0.498534,0 0.97623,-0.19717 1.32889,-0.54983c0.352661,-0.352661 0.54983,-0.830356 0.54983,-1.32889c0,0 0,0 0,0zm10.635932,-1.837043c-0.105798,-1.146148 -1.070807,-2.045433 -2.244206,-2.045433c0,0 0,0 0,0c-1.175002,0 -2.140011,0.899285 -2.245809,2.045433l4.490015,0zm-11.011035,-3.922551c0,-0.968214 -0.785472,-1.753687 -1.753687,-1.753687c-1.401026,0 -3.130667,0 -3.130667,0l0,3.50577c0,0 1.729641,0 3.130667,0c0.968214,0 1.753687,-0.783869 1.753687,-1.752084c0,0 0,0 0,0zm12.161992,-3.252495l0,1.630255l-6.745441,0l0,-1.630255l6.745441,0z"/>
  </g>
 </g>
</svg>