<svg width="10" height="10" xmlns="http://www.w3.org/2000/svg">

 <g>
  <title>background</title>
  <rect fill="none" id="canvas_background" height="12" width="12" y="-1" x="-1"/>
 </g>
 <g>
  <title>Layer 1</title>
  <path stroke="null" id="svg_2" fill-rule="evenodd" fill="#f79381" d="m0.502239,-0.002654l9.006673,0c0.271843,0 0.496396,0.224572 0.496396,0.502356l0,9.006575c0,0.271824 -0.224553,0.496377 -0.496377,0.496377l-9.006692,0c-0.277667,0 -0.502239,-0.224553 -0.502239,-0.496377l0,-9.006575c0,-0.277784 0.224572,-0.502356 0.502239,-0.502356l0,0zm4.491523,3.882743c0,-0.821432 -0.573332,-1.223305 -1.300143,-1.223305l-1.335689,0l-0.041409,0l-1.010517,0l0,4.591889l1.010536,0l0.041409,0l1.335689,0c0,0 1.453623,0.041389 1.453623,-1.353257c0,0 0.065015,-1.140703 -0.856861,-1.140703c-0.00002,0.00002 0.703361,-0.053095 0.703361,-0.874624l0,0zm1.111117,-0.38409l1.8971,0l0,-0.567371l-1.8971,0l0,0.567371zm0.986715,0.330879c-1.760973,0 -1.760973,1.761188 -1.760973,1.761188s-0.118364,1.755111 1.760973,1.755111c0,0 1.571947,0.08866 1.571947,-1.223208l-0.809375,0c0,0 0.029488,0.496377 -0.733084,0.496377c0,0 -0.809414,0.053134 -0.809414,-0.797884l2.375713,0c0.00002,0.000039 0.265766,-1.991584 -1.595788,-1.991584l0,0zm-0.785964,1.377098c0,0 0.094503,-0.703283 0.803747,-0.703283s0.703186,0.703283 0.703186,0.703283l-1.506932,0zm-3.94768,-1.731602l1.164231,0l0.171439,0c0,0 0.324938,0 0.324938,0.478613c0,0.478711 -0.189026,0.549706 -0.407736,0.549706l-1.252891,0l0,-1.028319l0.00002,0zm1.33567,1.731602c0,0 0.484476,-0.006058 0.484476,0.632289c0,0.52608 -0.354426,0.590899 -0.543648,0.596957c-0.041389,0 -0.070877,0 -0.094503,0l-1.181994,0l0,-1.229246l1.33567,0z" clip-rule="evenodd"/>
 </g>
</svg>