<svg width="10" height="10" xmlns="http://www.w3.org/2000/svg">

 <g>
  <title>background</title>
  <rect fill="none" id="canvas_background" height="12" width="12" y="-1" x="-1"/>
 </g>
 <g>
  <title>Layer 1</title>
  <path id="svg_2" d="m30.071,27.101l0,-0.077c-0.016,0.026 -0.033,0.052 -0.05,0.077l0.05,0z"/>
  <path fill="#f79381" stroke="null" id="svg_3" d="m9.223027,0.012825l-8.446654,0c-0.404284,0 -0.732164,0.320058 -0.732164,0.714516l0,8.545519c0,0.394257 0.327879,0.714316 0.732164,0.714316l8.446654,0c0.404886,0 0.732765,-0.320259 0.732765,-0.714316l0,-8.545519c0,-0.394658 -0.32808,-0.714516 -0.732765,-0.714516zm-6.17456,8.349794l-1.497015,0l0,-4.503879l1.497015,0l0,4.503879zm-0.748407,-5.119129l-0.010027,0c-0.502147,0 -0.827018,-0.345928 -0.827018,-0.778087c0,-0.441785 0.334898,-0.778087 0.846871,-0.778087c0.512174,0 0.827219,0.336302 0.837245,0.778087c0,0.432159 -0.325272,0.778087 -0.847072,0.778087zm6.146685,5.119129l-1.497015,0l0,-2.410064c0,-0.605223 -0.216581,-1.018331 -0.758234,-1.018331c-0.413509,0 -0.659769,0.278547 -0.76826,0.547669c-0.039506,0.096058 -0.049132,0.230418 -0.049132,0.365179l0,2.515346l-1.497015,0c0,0 0.019653,-4.081747 0,-4.503879l1.497015,0l0,0.63751c0.198934,-0.306823 0.554688,-0.743795 1.349419,-0.743795c0.984841,0 1.723422,0.643927 1.723422,2.027438l0,2.582927l-0.000201,0z"/>
 </g>
</svg>