<svg width="10" height="10" xmlns="http://www.w3.org/2000/svg">

 <g>
  <title>background</title>
  <rect fill="none" id="canvas_background" height="12" width="12" y="-1" x="-1"/>
 </g>
 <g>
  <title>Layer 1</title>
  <path id="svg_2" d="m30.071,27.101l0,-0.077c-0.016,0.026 -0.033,0.052 -0.05,0.077l0.05,0z"/>
  <path fill="#464655" stroke="null" id="svg_3" d="m9.230885,0.003544l-8.462372,0c-0.405037,0 -0.733526,0.320654 -0.733526,0.715846l0,8.561421c0,0.394991 0.32849,0.715645 0.733526,0.715645l8.462372,0c0.405639,0 0.734129,-0.320855 0.734129,-0.715645l0,-8.561421c0,-0.395393 -0.32869,-0.715846 -0.734129,-0.715846zm-6.18605,8.365332l-1.499801,0l0,-4.512261l1.499801,0l0,4.512261zm-0.7498,-5.128656l-0.010046,0c-0.503081,0 -0.828557,-0.346572 -0.828557,-0.779535c0,-0.442607 0.335521,-0.779535 0.848447,-0.779535c0.513127,0 0.828758,0.336928 0.838804,0.779535c0,0.432963 -0.325878,0.779535 -0.848648,0.779535zm6.158124,5.128656l-1.499801,0l0,-2.414549c0,-0.606349 -0.216984,-1.020226 -0.759645,-1.020226c-0.414279,0 -0.660997,0.279065 -0.76969,0.548688c-0.039579,0.096236 -0.049223,0.230847 -0.049223,0.365859l0,2.520027l-1.499801,0c0,0 0.019689,-4.089343 0,-4.512261l1.499801,0l0,0.638696c0.199304,-0.307394 0.55572,-0.745179 1.35193,-0.745179c0.986674,0 1.726629,0.645125 1.726629,2.03121l0,2.587734l-0.000201,0z"/>
 </g>
</svg>