<svg width="32" height="32" xmlns="http://www.w3.org/2000/svg">

 <g>
  <title>background</title>
  <rect fill="none" id="canvas_background" height="34" width="34" y="-1" x="-1"/>
 </g>
 <g>
  <g stroke="null" id="svg_1">
   <title stroke="null">Layer 1</title>
   <path stroke="null" fill="#00aced" id="XMLID_1_" d="m31.082234,31.974839l-30.157747,0c-0.496486,0 -0.902701,-0.406216 -0.902701,-0.902701l0,-30.150225c0,-0.496486 0.406216,-0.902701 0.902701,-0.902701l30.150225,0c0.496486,0 0.902701,0.406216 0.902701,0.902701l0,30.150225c0.007523,0.496486 -0.398693,0.902701 -0.895179,0.902701z" class="st0"/>
   <path stroke="null" fill="#ffffff" id="XMLID_11_" d="m23.868146,16.154998c-0.06018,2.392159 -1.692565,5.671973 -3.38513,7.612781c-3.859048,4.438282 -13.337412,4.445804 -18.196955,1.053152c-0.06018,-0.045135 -0.12036,-0.09027 -0.18054,-0.127883c0.541621,0.09027 1.105809,0.127883 1.669997,0.127883c2.572699,0 4.934767,-0.917746 6.777783,-2.437294c0.022568,0 0.045135,0 0.067703,0c2.753239,0 5.047605,-1.97842 5.529046,-4.588732c2.429771,1.120854 5.950306,0.346036 7.718097,-1.639907z" class="st1"/>
   <circle stroke="null" fill="#ffffff" r="5.626838" id="XMLID_5_" cy="10.377709" cx="21.295447" class="st1"/>
   <path stroke="null" fill="#ffffff" id="XMLID_4_" d="m24.349587,20.074226c-1.850538,2.444816 -3.05414,4.054634 -6.138369,5.498956c-2.813419,1.316439 -3.513013,-6.755215 -3.513013,-9.862012s8.966833,-10.33593 11.170929,-8.14688c2.504996,2.497474 0.406216,9.967327 -1.519547,12.509936z" class="st1"/>
   <path stroke="null" fill="#ffffff" id="XMLID_31_" d="m16.247842,16.741754c0,0.361081 -0.03009,0.707116 -0.097793,1.045629c-0.488963,2.647924 -2.775807,4.663957 -5.529046,4.663957c-0.022568,0 -0.045135,0.007523 -0.067703,0.007523l-0.007523,0c-0.045135,0 -0.09027,-0.007523 -0.135405,-0.007523c-0.037613,0 -0.075225,-0.007523 -0.112838,-0.007523c-0.022568,0 -0.045135,0 -0.067703,-0.007523c-0.03009,0 -0.067703,-0.007523 -0.097793,-0.007523c-0.052658,-0.007523 -0.105315,-0.007523 -0.15045,-0.015045s-0.09027,-0.007523 -0.135405,-0.015045c-0.045135,-0.007523 -0.09027,-0.015045 -0.142928,-0.022568c-0.037613,-0.007523 -0.075225,-0.015045 -0.105315,-0.022568c-0.022568,0 -0.045135,-0.007523 -0.06018,-0.015045c-0.037613,-0.007523 -0.067703,-0.015045 -0.105315,-0.022568c-0.045135,-0.007523 -0.09027,-0.022568 -0.127883,-0.03009l-0.007523,0c-0.03009,-0.007523 -0.06018,-0.015045 -0.09027,-0.022568c-0.015045,-0.007523 -0.037613,-0.007523 -0.052658,-0.015045c-0.007523,0 -0.007523,0 -0.015045,-0.007523c-0.075225,-0.022568 -0.157973,-0.045135 -0.233198,-0.067703c-0.022568,-0.007523 -0.045135,-0.015045 -0.075225,-0.022568c-0.037613,-0.015045 -0.067703,-0.022568 -0.105315,-0.037613c-0.105315,-0.037613 -0.21063,-0.075225 -0.308423,-0.12036c-0.03009,-0.015045 -0.052658,-0.022568 -0.082748,-0.037613c-0.007523,-0.007523 -0.022568,-0.007523 -0.03009,-0.015045c-0.022568,-0.007523 -0.045135,-0.022568 -0.06018,-0.03009c-0.052658,-0.022568 -0.097793,-0.045135 -0.15045,-0.075225c-0.022568,-0.015045 -0.052658,-0.022568 -0.075225,-0.037613c-0.06018,-0.03009 -0.127883,-0.067703 -0.188063,-0.105315c-0.173018,-0.097793 -0.346036,-0.24072 -0.511531,-0.368603c-0.03009,-0.022568 -0.06018,-0.015045 -0.09027,-0.09027l0,0c-0.03009,0 -0.067703,-0.022568 -0.097793,-0.045135c-0.015045,-0.015045 -0.037613,-0.015045 -0.052658,-0.03009c-0.045135,-0.037613 -0.097793,-0.075225 -0.142928,-0.112838c-0.022568,-0.022568 -0.045135,-0.037613 -0.075225,-0.06018c-0.007523,-0.007523 -0.007523,-0.007523 -0.015045,-0.007523c-0.022568,-0.022568 -0.052658,-0.045135 -0.075225,-0.067703c-0.03009,-0.022568 -0.052658,-0.052658 -0.075225,-0.075225s-0.052658,-0.052658 -0.075225,-0.075225c-0.075225,-0.075225 -0.15045,-0.157973 -0.225675,-0.24072c-0.022568,-0.022568 -0.045135,-0.052658 -0.067703,-0.075225c-0.045135,-0.06018 -0.097793,-0.112838 -0.142928,-0.173018c-0.022568,-0.03009 -0.045135,-0.06018 -0.067703,-0.09027c-0.022568,-0.03009 -0.045135,-0.06018 -0.067703,-0.09027c-0.022568,-0.03009 -0.045135,-0.06018 -0.06018,-0.09027c-0.022568,-0.03009 -0.037613,-0.06018 -0.06018,-0.09027s-0.045135,-0.06018 -0.06018,-0.097793c-0.037613,-0.06018 -0.075225,-0.12036 -0.112838,-0.18054l0,0c-0.015045,-0.03009 -0.037613,-0.06018 -0.052658,-0.097793c-0.052658,-0.097793 -0.105315,-0.195585 -0.15045,-0.3009c-0.015045,-0.03009 -0.03009,-0.067703 -0.045135,-0.097793s-0.03009,-0.067703 -0.045135,-0.097793c-0.015045,-0.03009 -0.03009,-0.067703 -0.045135,-0.105315c-0.052658,-0.135405 -0.105315,-0.285855 -0.15045,-0.428783c0.263288,0.045135 0.526576,0.067703 0.797386,0.075225c0.601801,0.015045 1.181034,-0.067703 1.730178,-0.233198c-0.052658,-0.007523 -0.105315,-0.022568 -0.157973,-0.037613c0.398693,0.09027 0.812431,0.135405 1.233692,0.135405c0.722161,0 1.414232,-0.135405 2.053646,-0.391171c1.233692,-0.488963 2.256753,-1.414232 2.888644,-2.587744c0.436306,-0.812431 0.684549,-1.745223 0.684549,-2.738194c0,-0.037613 0,-0.075225 0,-0.112838c1.075719,1.023062 1.752745,2.497474 1.752745,4.129859z" class="st1"/>
   <path stroke="null" fill="#ffffff" id="XMLID_19_" d="m14.645547,12.32604c-0.865089,0.278333 -1.850538,0.639413 -2.437294,1.030584c-0.067703,0.045135 -0.135405,0.09027 -0.203108,0.127883c-0.872611,0.526576 -1.88815,0.827476 -2.986437,0.827476c-1.090764,0 -2.113826,-0.3009 -2.986437,-0.827476c-0.045135,-0.03009 -0.09027,-0.052658 -0.135405,-0.082748c-0.203108,-0.127883 -0.406216,-0.278333 -0.586756,-0.436306c-0.729684,-0.616846 -1.301394,-1.40671 -1.639907,-2.309411c-0.195585,-0.526576 -0.338513,-1.090764 -0.368603,-1.685043c-0.007523,-0.09027 -0.022568,-0.18054 -0.022568,-0.278333l0,-0.037613c0,-1.038107 0.315945,-2.016033 0.812431,-2.843509c0.376126,0.556666 1.188557,1.323962 2.083736,2.053646c0.932791,0.759774 1.955853,1.46689 2.670491,1.835493c2.061168,1.038107 4.212606,1.654952 5.679496,1.895673c0.556666,0.09027 1.008017,0.127883 1.323962,0.105315c1.203602,-0.075225 0.142928,0.18054 -1.203602,0.624368z" class="st1"/>
   <path stroke="null" fill="#ffffff" id="XMLID_22_" d="m14.5628,12.672075c0,2.504996 -1.481935,4.656434 -3.573193,5.514001c-0.639413,0.263288 -1.331484,0.406216 -2.053646,0.406216c-0.421261,0 -0.834999,-0.045135 -1.233692,-0.15045c-0.015045,0 -0.03009,-0.007523 -0.045135,-0.007523c-0.985449,-0.24072 -1.880628,-0.759774 -2.587744,-1.46689c-0.812431,-0.812431 -1.399187,-1.880628 -1.639907,-3.08423c0,-0.007523 -0.007523,-0.022568 -0.007523,-0.03009c-0.075225,-0.376126 -0.112838,-0.774819 -0.112838,-1.181034c0,-0.037613 0,-0.075225 0,-0.112838c0.774819,0.466396 1.669997,0.737206 2.617834,0.759774c0.045135,0.03009 0.09027,0.06018 0.135405,0.09027c0.015045,0.007523 0.022568,0.015045 0.037613,0.022568c0.255765,0.165495 0.526576,0.3009 0.804909,0.428783c0.646936,0.278333 1.361575,0.428783 2.098781,0.428783c0.699594,0 1.369097,-0.127883 1.985943,-0.376126c0.33099,-0.127883 0.654458,-0.293378 0.947836,-0.496486c0.067703,-0.045135 0.135405,-0.09027 0.203108,-0.135405c0.519053,-0.368603 1.354052,-0.714639 2.136393,-0.992971c0.09027,-0.03009 0.18054,-0.06018 0.27081,-0.09027c0.007523,0.112838 0.015045,0.24072 0.015045,0.361081c0,0.022568 0,0.075225 0,0.112838z" class="st1"/>
   <rect stroke="null" fill="#ffffff" y="11.859644" x="14.051269" width="2.903689" id="XMLID_3_" height="2.926257" class="st1"/>
   <path stroke="null" fill="#ffffff" id="XMLID_16_" d="m29.148949,5.089384c-0.007523,0.03009 -0.03009,0.052658 -0.045135,0.082748c-0.977926,1.985943 -1.760268,3.219635 -3.716121,3.370085l0,-1.97842c0.3009,-0.045135 0.458873,-0.082748 0.075225,-0.03009c-0.007523,0 -0.007523,0 -0.015045,0c0.06018,-0.007523 0.12036,-0.022568 0.195585,-0.037613c1.7377,-0.338513 1.903195,-0.549143 3.50549,-1.40671z" class="st1"/>
   <path stroke="null" fill="#ffffff" id="XMLID_6_" d="m29.878633,7.406317c-0.007523,0.022568 -0.015045,0.052658 -0.037613,0.075225c-1.226169,1.421755 -1.94833,2.580221 -3.798868,3.332472l0,-2.271798c0.556666,-0.278333 0.421261,-0.225675 0.06018,-0.03009c-0.007523,0 0.428783,-0.218153 0.421261,-0.218153c0,0 -0.015045,0.007523 0.06018,-0.007523c1.730178,-0.27081 1.624862,-0.218153 3.29486,-0.880134z" class="st1"/>
  </g>
 </g>
</svg>