<svg width="10" height="10" xmlns="http://www.w3.org/2000/svg">

 <g>
  <title>background</title>
  <rect fill="none" id="canvas_background" height="12" width="12" y="-1" x="-1"/>
 </g>
 <g>
  <title>Layer 1</title>
  <path stroke="null" id="svg_2" fill-rule="evenodd" fill="#f79381" d="m0.502258,0l9.007005,0c0.271853,0 0.496414,0.224581 0.496414,0.502375l0,9.006908c0,0.271834 -0.224561,0.496395 -0.496395,0.496395l-9.007025,0c-0.277677,0 -0.502258,-0.224561 -0.502258,-0.496395l0,-9.006908c0,-0.277794 0.224581,-0.502375 0.502258,-0.502375l0,0zm4.958614,2.340351c-0.195091,0.153681 -0.354635,0.348674 -0.455219,0.573255l-0.058979,0.141877c-0.029685,0.082703 -0.053312,0.177308 -0.065037,0.271834c-0.005843,0.04141 -0.011901,0.082801 -0.011901,0.124113l0,0.082801l0.006058,0.130054l0.023627,0.171367l-0.006058,0l-0.065037,0.005843l-0.041195,0c-0.502453,-0.005843 -0.981104,-0.118133 -1.41852,-0.313225l-0.25405,-0.124094c-0.047253,-0.023627 -0.094507,-0.053116 -0.135917,-0.07686c-0.283755,-0.171367 -0.537805,-0.378164 -0.768248,-0.614646c-0.141975,-0.153583 -0.265971,-0.313225 -0.384124,-0.484591c-0.124192,0.236384 -0.195091,0.502375 -0.195091,0.786012c0,0.106428 0.011725,0.212757 0.029489,0.313225c0.005863,0.04141 0.017764,0.082801 0.029489,0.124113c0.082801,0.307381 0.248403,0.579215 0.472983,0.78611l0.11229,0.094507l-0.141975,-0.029489c-0.18317,-0.047351 -0.366341,-0.106428 -0.537805,-0.177308c0.023627,0.366438 0.165602,0.703309 0.390182,0.96928c0.206797,0.25407 0.490337,0.443298 0.815482,0.537825l-0.378262,0.023627l-0.313225,-0.017764c0.236501,0.573353 0.774307,0.986947 1.418344,1.040258c-0.590921,0.431378 -1.323818,0.679565 -2.10983,0.685428c0.579196,0.348792 1.247075,0.56751 1.962188,0.608685l0.472768,0c2.222335,-0.123996 3.983374,-1.961992 3.983374,-4.213797l-0.006058,-0.218718c0.082801,-0.06492 0.17166,-0.135917 0.248403,-0.212757c0.189033,-0.18317 0.360302,-0.384124 0.50812,-0.596862c-0.230639,0.147721 -0.50812,0.236384 -0.809444,0.236384l-0.017764,0l-0.012116,0l0.012116,-0.005863c0.277482,-0.177327 0.496395,-0.449259 0.602647,-0.768346c-0.218522,0.10633 -0.455219,0.200954 -0.697153,0.265971l-0.035548,0.005863l-0.177308,0.04141c-0.271834,-0.283755 -0.644233,-0.460965 -1.057846,-0.466925l-0.012116,0l-0.017373,0c-0.118348,0 -0.230639,0.011804 -0.342929,0.03545c-0.165602,0.041391 -0.319087,0.106428 -0.4552,0.195091l-0.106232,0.070861z" clip-rule="evenodd"/>
 </g>
</svg>