<svg width="10" height="10" xmlns="http://www.w3.org/2000/svg">

 <g>
  <title>background</title>
  <rect fill="none" id="canvas_background" height="12" width="12" y="-1" x="-1"/>
 </g>
 <g>
  <path stroke="null" fill="#464655" id="XMLID_1_" d="m9.712212,9.991906l-9.422106,0c-0.155116,0 -0.282029,-0.126913 -0.282029,-0.282029l0,-9.419755c0,-0.155116 0.126913,-0.282029 0.282029,-0.282029l9.419755,0c0.155116,0 0.282029,0.126913 0.282029,0.282029l0,9.419755c0.00235,0.155116 -0.124563,0.282029 -0.279678,0.282029z" class="st0"/>
  <path stroke="null" fill="#ffffff" id="XMLID_11_" d="m7.458333,5.049355c-0.018802,0.747376 -0.528804,1.77208 -1.057607,2.378441c-1.205672,1.386641 -4.166973,1.388991 -5.685227,0.329033c-0.018802,-0.014101 -0.037604,-0.028203 -0.056406,-0.039954c0.169217,0.028203 0.345485,0.039954 0.521753,0.039954c0.803782,0 1.541756,-0.286729 2.117565,-0.761477c0.007051,0 0.014101,0 0.021152,0c0.860187,0 1.57701,-0.618113 1.727425,-1.433645c0.759127,0.350186 1.859039,0.108111 2.411345,-0.512352z" class="st1"/>
  <circle stroke="null" fill="#ffffff" r="1.757978" id="XMLID_5_" cy="3.244372" cx="6.654552" class="st1"/>
  <path stroke="null" fill="#ffffff" id="XMLID_4_" d="m7.608748,6.273829c-0.578159,0.763827 -0.954197,1.266778 -1.917794,1.718024c-0.878989,0.411292 -1.097561,-2.110514 -1.097561,-3.081162s2.801484,-3.229227 3.490104,-2.545308c0.782629,0.780279 0.126913,3.114066 -0.474748,3.908446z" class="st1"/>
  <path stroke="null" fill="#ffffff" id="XMLID_31_" d="m5.077542,5.232674c0,0.112811 -0.009401,0.220922 -0.030553,0.326683c-0.152765,0.827284 -0.867238,1.457148 -1.727425,1.457148c-0.007051,0 -0.014101,0.00235 -0.021152,0.00235l-0.00235,0c-0.014101,0 -0.028203,-0.00235 -0.042304,-0.00235c-0.011751,0 -0.023502,-0.00235 -0.035254,-0.00235c-0.007051,0 -0.014101,0 -0.021152,-0.00235c-0.009401,0 -0.021152,-0.00235 -0.030553,-0.00235c-0.016452,-0.00235 -0.032903,-0.00235 -0.047005,-0.0047s-0.028203,-0.00235 -0.042304,-0.0047c-0.014101,-0.00235 -0.028203,-0.0047 -0.044655,-0.007051c-0.011751,-0.00235 -0.023502,-0.0047 -0.032903,-0.007051c-0.007051,0 -0.014101,-0.00235 -0.018802,-0.0047c-0.011751,-0.00235 -0.021152,-0.0047 -0.032903,-0.007051c-0.014101,-0.00235 -0.028203,-0.007051 -0.039954,-0.009401l-0.00235,0c-0.009401,-0.00235 -0.018802,-0.0047 -0.028203,-0.007051c-0.0047,-0.00235 -0.011751,-0.00235 -0.016452,-0.0047c-0.00235,0 -0.00235,0 -0.0047,-0.00235c-0.023502,-0.007051 -0.049355,-0.014101 -0.072857,-0.021152c-0.007051,-0.00235 -0.014101,-0.0047 -0.023502,-0.007051c-0.011751,-0.0047 -0.021152,-0.007051 -0.032903,-0.011751c-0.032903,-0.011751 -0.065807,-0.023502 -0.09636,-0.037604c-0.009401,-0.0047 -0.016452,-0.007051 -0.025853,-0.011751c-0.00235,-0.00235 -0.007051,-0.00235 -0.009401,-0.0047c-0.007051,-0.00235 -0.014101,-0.007051 -0.018802,-0.009401c-0.016452,-0.007051 -0.030553,-0.014101 -0.047005,-0.023502c-0.007051,-0.0047 -0.016452,-0.007051 -0.023502,-0.011751c-0.018802,-0.009401 -0.039954,-0.021152 -0.058756,-0.032903c-0.054055,-0.030553 -0.108111,-0.075208 -0.159816,-0.115162c-0.009401,-0.007051 -0.018802,-0.0047 -0.028203,-0.028203l0,0c-0.009401,0 -0.021152,-0.007051 -0.030553,-0.014101c-0.0047,-0.0047 -0.011751,-0.0047 -0.016452,-0.009401c-0.014101,-0.011751 -0.030553,-0.023502 -0.044655,-0.035254c-0.007051,-0.007051 -0.014101,-0.011751 -0.023502,-0.018802c-0.00235,-0.00235 -0.00235,-0.00235 -0.0047,-0.00235c-0.007051,-0.007051 -0.016452,-0.014101 -0.023502,-0.021152c-0.009401,-0.007051 -0.016452,-0.016452 -0.023502,-0.023502s-0.016452,-0.016452 -0.023502,-0.023502c-0.023502,-0.023502 -0.047005,-0.049355 -0.070507,-0.075208c-0.007051,-0.007051 -0.014101,-0.016452 -0.021152,-0.023502c-0.014101,-0.018802 -0.030553,-0.035254 -0.044655,-0.054055c-0.007051,-0.009401 -0.014101,-0.018802 -0.021152,-0.028203c-0.007051,-0.009401 -0.014101,-0.018802 -0.021152,-0.028203c-0.007051,-0.009401 -0.014101,-0.018802 -0.018802,-0.028203c-0.007051,-0.009401 -0.011751,-0.018802 -0.018802,-0.028203s-0.014101,-0.018802 -0.018802,-0.030553c-0.011751,-0.018802 -0.023502,-0.037604 -0.035254,-0.056406l0,0c-0.0047,-0.009401 -0.011751,-0.018802 -0.016452,-0.030553c-0.016452,-0.030553 -0.032903,-0.061106 -0.047005,-0.09401c-0.0047,-0.009401 -0.009401,-0.021152 -0.014101,-0.030553s-0.009401,-0.021152 -0.014101,-0.030553c-0.0047,-0.009401 -0.009401,-0.021152 -0.014101,-0.032903c-0.016452,-0.042304 -0.032903,-0.089309 -0.047005,-0.133964c0.082258,0.014101 0.164517,0.021152 0.249125,0.023502c0.188019,0.0047 0.368987,-0.021152 0.540555,-0.072857c-0.016452,-0.00235 -0.032903,-0.007051 -0.049355,-0.011751c0.124563,0.028203 0.253826,0.042304 0.385439,0.042304c0.225623,0 0.441845,-0.042304 0.641615,-0.122212c0.385439,-0.152765 0.705072,-0.441845 0.902492,-0.808482c0.136314,-0.253826 0.213872,-0.545255 0.213872,-0.855487c0,-0.011751 0,-0.023502 0,-0.035254c0.336084,0.319632 0.547606,0.780279 0.547606,1.290281z" class="st1"/>
  <path stroke="null" fill="#ffffff" id="XMLID_19_" d="m4.576941,3.853084c-0.270277,0.086959 -0.578159,0.19977 -0.761477,0.321983c-0.021152,0.014101 -0.042304,0.028203 -0.063456,0.039954c-0.272628,0.164517 -0.58991,0.258526 -0.933045,0.258526c-0.340785,0 -0.660417,-0.09401 -0.933045,-0.258526c-0.014101,-0.009401 -0.028203,-0.016452 -0.042304,-0.025853c-0.063456,-0.039954 -0.126913,-0.086959 -0.183319,-0.136314c-0.227973,-0.19272 -0.406591,-0.439495 -0.512352,-0.721523c-0.061106,-0.164517 -0.105761,-0.340785 -0.115162,-0.526453c-0.00235,-0.028203 -0.007051,-0.056406 -0.007051,-0.086959l0,-0.011751c0,-0.324333 0.09871,-0.629864 0.253826,-0.88839c0.117512,0.173918 0.371338,0.413642 0.651016,0.641615c0.29143,0.237374 0.611062,0.458296 0.834335,0.573458c0.643965,0.324333 1.316133,0.517052 1.77443,0.59226c0.173918,0.028203 0.314932,0.039954 0.413642,0.032903c0.376038,-0.023502 0.044655,0.056406 -0.376038,0.19507z" class="st1"/>
  <path stroke="null" fill="#ffffff" id="XMLID_22_" d="m4.551088,3.961195c0,0.782629 -0.462997,1.454798 -1.116363,1.722725c-0.19977,0.082258 -0.415992,0.126913 -0.641615,0.126913c-0.131613,0 -0.260876,-0.014101 -0.385439,-0.047005c-0.0047,0 -0.009401,-0.00235 -0.014101,-0.00235c-0.307881,-0.075208 -0.58756,-0.237374 -0.808482,-0.458296c-0.253826,-0.253826 -0.437144,-0.58756 -0.512352,-0.963598c0,-0.00235 -0.00235,-0.007051 -0.00235,-0.009401c-0.023502,-0.117512 -0.035254,-0.242075 -0.035254,-0.368987c0,-0.011751 0,-0.023502 0,-0.035254c0.242075,0.145715 0.521753,0.230323 0.817883,0.237374c0.014101,0.009401 0.028203,0.018802 0.042304,0.028203c0.0047,0.00235 0.007051,0.0047 0.011751,0.007051c0.079908,0.051705 0.164517,0.09401 0.251476,0.133964c0.20212,0.086959 0.425393,0.133964 0.655717,0.133964c0.218572,0 0.427743,-0.039954 0.620463,-0.117512c0.10341,-0.039954 0.204471,-0.091659 0.29613,-0.155116c0.021152,-0.014101 0.042304,-0.028203 0.063456,-0.042304c0.162166,-0.115162 0.423043,-0.223273 0.667468,-0.310231c0.028203,-0.009401 0.056406,-0.018802 0.084609,-0.028203c0.00235,0.035254 0.0047,0.075208 0.0047,0.112811c0,0.007051 0,0.023502 0,0.035254z" class="st1"/>
  <rect stroke="null" fill="#ffffff" y="3.707369" x="4.391272" width="0.907192" id="XMLID_3_" height="0.914243" class="st1"/>
  <path stroke="null" fill="#ffffff" id="XMLID_16_" d="m9.108201,1.592154c-0.00235,0.009401 -0.009401,0.016452 -0.014101,0.025853c-0.305531,0.620463 -0.549956,1.005902 -1.161018,1.052907l0,-0.618113c0.09401,-0.014101 0.143365,-0.025853 0.023502,-0.009401c-0.00235,0 -0.00235,0 -0.0047,0c0.018802,-0.00235 0.037604,-0.007051 0.061106,-0.011751c0.542905,-0.105761 0.59461,-0.171567 1.095211,-0.439495z" class="st1"/>
  <path stroke="null" fill="#ffffff" id="XMLID_6_" d="m9.336174,2.316028c-0.00235,0.007051 -0.0047,0.016452 -0.011751,0.023502c-0.383089,0.444195 -0.608712,0.806132 -1.18687,1.041156l0,-0.709772c0.173918,-0.086959 0.131613,-0.070507 0.018802,-0.009401c-0.00235,0 0.133964,-0.068157 0.131613,-0.068157c0,0 -0.0047,0.00235 0.018802,-0.00235c0.540555,-0.084609 0.507651,-0.068157 1.029404,-0.274978z" class="st1"/>
 </g>
</svg>